<svg data-v-0dd9719b="" version="1.0" xmlns="http://www.w3.org/2000/svg" xmlns:xlink="http://www.w3.org/1999/xlink" width="100%" height="100%" viewBox="0 0 340.000000 250.000000" preserveAspectRatio="xMidYMid meet" color-interpolation-filters="sRGB" style="margin: auto;"> <rect data-v-0dd9719b="" x="0" y="0" width="100%" height="100%" fill="#ffffff" fill-opacity="1" class="background"></rect> <rect data-v-0dd9719b="" x="0" y="0" width="100%" height="100%" fill="url(#watermark)" fill-opacity="1" class="watermarklayer"></rect> <g data-v-0dd9719b="" fill="#fbbc09" class="icon-text-wrapper icon-svg-group iconsvg" transform="translate(47.900001525878906,90.84971618652344)"><g class="iconsvg-imagesvg" transform="translate(0,0)"><g><rect fill="#fbbc09" fill-opacity="0" stroke-width="2" x="0" y="0" width="60" height="68.30056803305747" class="image-rect"></rect> <svg filter="url(#colors404790594)" x="0" y="0" width="60" height="68.30056803305747" filtersec="colorsf7874023973" class="image-svg-svg primary" style="overflow: visible;"><svg xmlns="http://www.w3.org/2000/svg" xmlns:xlink="http://www.w3.org/1999/xlink" version="1.1" x="0px" y="0px" viewBox="5.416748046875 2.5 42.16650390625 48" xml:space="preserve"><g><path d="M6.416748,48.5c-0.5522461,0-1,0.4477539-1,1s0.4477539,1,1,1c11.4312477,0,22.4547443,0,40.1665039,0   c0.5522461,0,1-0.4477539,1-1s-0.4477539-1-1-1h-6.9702148v-9.8754883h0.8422852   c2.3564453,0,4.2739258-1.7861328,4.2739258-3.9814453c0-0.5522461-0.4477539-1-1-1s-1,0.4477539-1,1   c0,1.0927734-1.0200195,1.9814453-2.2739258,1.9814453h-0.8422852v-9.8754883h0.8422852   c2.3564453,0,4.2739258-1.7861328,4.2739258-3.9814453c0-0.5522461-0.4477539-1-1-1s-1,0.4477539-1,1   c0,1.0927734-1.0200195,1.9814453-2.2739258,1.9814453h-0.8422852v-9.8754883h0.8422852   c2.3564453,0,4.2739258-1.7861328,4.2739258-3.9814453c0-0.5522461-0.4477539-1-1-1s-1,0.4477539-1,1   c0,1.0927734-1.0200195,1.9814453-2.2739258,1.9814453h-1.4724121L27.1501465,2.7402344   c-0.3740234-0.3203125-0.9267578-0.3203125-1.3007813,0L14.0170898,12.8735352h-1.4504395   c-1.2539063,0-2.2739258-0.8886719-2.2739258-1.9814453c0-0.5522461-0.4477539-1-1-1s-1,0.4477539-1,1   c0,2.1821899,1.8956909,3.9563599,4.2327271,3.9775391c0.0067749,0.0001221,0.0123901,0.0039063,0.0192261,0.0039063h0.8422852   v9.8754883h-0.8203125c-1.2539063,0-2.2739258-0.8886719-2.2739258-1.9814453c0-0.5522461-0.4477539-1-1-1s-1,0.4477539-1,1   c0,2.1821899,1.8956909,3.9563599,4.2327271,3.9775391c0.0067749,0.0001221,0.0123901,0.0039063,0.0192261,0.0039063h0.8422852   v9.8754883h-0.8203125c-1.2539063,0-2.2739258-0.8886719-2.2739258-1.9814453c0-0.5522461-0.4477539-1-1-1s-1,0.4477539-1,1   c0,2.1821899,1.8956909,3.9563599,4.2327271,3.9775391c0.0067749,0.0001221,0.0123901,0.0039063,0.0192261,0.0039063h0.8422852   V48.5H6.416748z M23.1237793,48.5v-3.7753906c0-0.5512695,0.4487305-1,1-1h4.7524414c0.5512695,0,1,0.4487305,1,1V48.5H23.1237793z    M29.8762207,36.6245117h-6.7524414v-1.902832c0-0.9633789,1.8935547-2.2338867,3.3759766-2.9179688   c1.4829102,0.684082,3.3764648,1.9545898,3.3764648,2.9179688V36.6245117z M26.8791504,29.7871094   c-0.2431641-0.0996094-0.515625-0.0996094-0.7587891,0c-0.8344727,0.3422852-4.996582,2.1884766-4.996582,4.9345703v1.902832   h-5.7368164v-9.8754883h22.2260742v9.8754883h-5.7368164v-1.902832   C31.8762207,31.9755859,27.713623,30.1293945,26.8791504,29.7871094z M15.3869629,14.8735352h22.2260742v9.8754883H15.3869629   V14.8735352z M26.4997559,4.8164063l9.4082031,8.0571289H17.092041L26.4997559,4.8164063z M15.3869629,38.6245117h6.7368164   c2.1819859,0,13.2907295,0,15.4892578,0V48.5h-5.7368164v-3.7753906c0-1.6542969-1.3457031-3-3-3h-4.7524414   c-1.6542969,0-3,1.3457031-3,3V48.5h-5.7368164V38.6245117z"></path><path d="M26.4997559,15.7290039c-2.40625,0-4.3642578,1.831543-4.3642578,4.0825195s1.9580078,4.0825195,4.3642578,4.0825195   c2.4067383,0,4.3647461-1.831543,4.3647461-4.0825195S28.9064941,15.7290039,26.4997559,15.7290039z M26.4997559,21.894043   c-1.3037109,0-2.3642578-0.934082-2.3642578-2.0825195s1.0605469-2.0825195,2.3642578-2.0825195   s2.3647461,0.934082,2.3647461,2.0825195S27.8034668,21.894043,26.4997559,21.894043z"></path></g></svg></svg> <defs><filter id="colors404790594"><feColorMatrix type="matrix" values="0 0 0 0 0.19921875  0 0 0 0 0.19921875  0 0 0 0 0.19921875  0 0 0 1 0" class="icon-fecolormatrix"></feColorMatrix></filter> <filter id="colorsf7874023973"><feColorMatrix type="matrix" values="0 0 0 0 0.99609375  0 0 0 0 0.99609375  0 0 0 0 0.99609375  0 0 0 1 0" class="icon-fecolormatrix"></feColorMatrix></filter> <filter id="colorsb5823420690"><feColorMatrix type="matrix" values="0 0 0 0 0  0 0 0 0 0  0 0 0 0 0  0 0 0 1 0" class="icon-fecolormatrix"></feColorMatrix></filter></defs></g></g> <g transform="translate(67,9.559032440185547)"><g data-gra="path-name" fill-rule="" class="tp-name iconsvg-namesvg" transform="translate(0,0)"><g transform="scale(1)"><g><path d="M5.89-28.59L5.72-29.99 11.8-29.99Q11.84-29.75 11.99-28.59L11.99-28.59 23.78-28.59Q23.82-28.59 23.91-29.46L23.91-29.46Q23.95-29.46 23.99-29.99L23.99-29.99 30.07-29.99Q29.9-28.69 29.9-28.59L29.9-28.59 34.37-28.59 34.37-24.2 29.65-24.2Q29.65-23.99 29.73-22.57L29.73-22.57Q29.73-22.57 29.73-22.55L29.73-22.55 29.71-22.53 23.65-22.53Q23.57-23.8 23.57-24.2L23.57-24.2 12.26-24.2Q12.22-23.44 12.16-22.53L12.16-22.53 6.08-22.53Q6.14-23.68 6.14-24.2L6.14-24.2 2.73-24.2Q1.78-27.25 1.36-28.59L1.36-28.59 5.89-28.59ZM11.14-20.33L11.14-22.19 17.17-22.19Q17.22-22.17 17.22-22.15L17.22-22.15 17.22-20.33 27.06-20.33 27.06 4.24 19.36 4.24 18-0.8 20.99-0.8 20.99-15.29 17.17-15.29Q17.17-12.92 16.58-8.83L16.58-8.83Q15.99-5.74 15.27-3.77L15.27-3.77Q14.42-1.57 13.38-0.04L13.38-0.04Q11.5 2.69 8.53 3.66L8.53 3.66Q7.2 4.11 5.48 4.11L5.48 4.11 5.48-0.95Q5.48-0.97 6.06-1.16L6.06-1.16Q8.05-2.12 9.28-5.1L9.28-5.1Q9.87-6.44 10.36-8.64L10.36-8.64Q10.95-11.88 10.95-12.9L10.95-12.9Q11.03-13.79 11.1-15.29L11.1-15.29 4.83-15.29Q4.79-15.29 4.64-15.86L4.64-15.86Q4.53-16.24 3.43-20.33L3.43-20.33 11.14-20.33ZM28.08-6.61L28.08-17.07 33.14-17.07 33.14-6.59Q33.14-4.55 33.78-2.69L33.78-2.69Q34.05-2.08 34.35-1.91L34.35-1.91Q34.39-1.84 34.62-1.78L34.62-1.78 34.62 2.92 34.6 2.92Q30.68 2.92 29.1-0.57L29.1-0.57Q28.08-2.71 28.08-6.61L28.08-6.61ZM3.05-10.52L3.05-13.79 8.05-13.79Q8.09-13.79 8.09-13.74L8.09-13.74 8.09-10.82Q8.09-3.79 4.45-1.74L4.45-1.74Q3.18-1.04 1.69-1.04L1.69-1.04 1.55-1.04 1.55-5.76Q1.97-5.76 2.44-6.61L2.44-6.61Q3.05-8.2 3.05-10.52L3.05-10.52ZM42.48-11.9L42.48-29.67 48.2-29.67 48.2-11.22Q48.2-1.04 44.83 2.31L44.83 2.31Q42.9 4.24 39.96 4.24L39.96 4.24 39.88 4.24 39.88-0.83Q40.36-1 40.81-1.65L40.81-1.65Q42.48-4.36 42.48-11.9L42.48-11.9ZM64.63 3.85L64.63-29.67 70.37-29.67 70.37 3.85 64.63 3.85ZM53.56 3.11L53.56-28.88 59.32-28.88 59.32 3.11Q59.32 3.13 59.27 3.13L59.27 3.13 53.6 3.13Q53.56 3.13 53.56 3.11L53.56 3.11ZM48.9-23.34L48.9-23.34 51.86-23.34Q51.86-23.06 52.56-5.27L52.56-5.27 49.62-5.27Q49.57-5.27 49.57-5.32L49.57-5.32Q49.57-5.51 48.9-23.34ZM60.84-5.27L60.14-23.34 63.11-23.34Q63.78-5.63 63.78-5.27L63.78-5.27 60.84-5.27ZM38.46-23.25L38.46-23.25 41.74-23.25 41.74-12.54Q41.74-7.09 39.83-5.7L39.83-5.7Q38.94-4.98 37.63-4.98L37.63-4.98 37.61-4.98 37.61-8.32Q37.99-8.32 38.22-9.93L38.22-9.93Q38.41-11.29 38.41-13.17L38.41-13.17 38.41-23.21Q38.41-23.25 38.46-23.25ZM83.44-29.94L83.44-29.94 105.16-29.94 105.16-19.19 90.85-19.19Q90.78-19.23 89.51-22.04L89.51-22.04 89.49-22.04 89.49-19.23Q89.49-19.19 89.45-19.19L89.45-19.19 83.39-19.19 83.39-29.9Q83.39-29.94 83.44-29.94ZM74.14-28.38L73.69-29.6 79.39-29.6Q79.56-29.41 80-28.16L80-28.16Q81.42-23.72 81.42-21.75L81.42-21.75 81.42-21.64 75.73-21.64Q75.73-23.02 74.14-28.38L74.14-28.38ZM99.08-26.92L89.49-26.92 89.49-26.07 99.08-26.07 99.08-26.92ZM99.08-23.06L89.49-23.06 89.49-22.19 99.08-22.19 99.08-23.06ZM73.69-19.97L73.69-19.97 79.41-19.97Q80.3-18.13 81.15-14.19L81.15-14.19Q81.42-12.81 81.42-12.13L81.42-12.13 81.42-12.01 75.73-12.01Q75.73-13.72 74.18-18.76L74.18-18.76Q73.88-19.55 73.69-19.97ZM82.63-9.04L82.63-18.17 105.95-18.17 105.95-9.04 88.98-9.04Q88.94-9.04 88.6-10.1L88.6-10.1Q87.69-12.6 87.69-12.71L87.69-12.71 87.67-12.71 87.67-9.04 82.63-9.04ZM89.3-14.46L87.67-14.46 87.67-12.75 89.3-12.75 89.3-14.46ZM95.25-14.46L93.64-14.46 93.64-12.75 95.25-12.75 95.25-14.46ZM101.24-14.46L99.64-14.46 99.64-12.75 101.24-12.75 101.24-14.46ZM75.73-10.33L81.42-10.33 81.42-10.31Q80.49-6.27 79.69-0.11L79.69-0.11Q79.41 2.16 79.41 3.62L79.41 3.62 79.41 3.83 73.69 3.83 73.69 3.75Q73.69 0.64 74.92-6.8L74.92-6.8Q75.35-9.04 75.73-10.33L75.73-10.33ZM83.24-8.2L83.24-8.2 105.67-8.2 105.67-7.98Q105.67-5.44 103.85-3.09L103.85-3.09Q103.45-2.54 102.39-1.59L102.39-1.59Q101.44-0.8 100.65-0.3L100.65-0.3Q101.94-0.06 104.7 0.15L104.7 0.15 106.24 0.21 106.28 4.24 106.26 4.24Q100.97 4.24 95.32 2.8L95.32 2.8 94.26 2.46Q92.22 3.11 88.56 3.73L88.56 3.73Q85.07 4.24 82.36 4.24L82.36 4.24 82.29 4.24Q82.31 2.05 82.31 0.89L82.31 0.89 82.31 0.47 82.33 0.21Q84.39 0.21 88.12-0.4L88.12-0.4 88.12-0.42Q87.48-0.78 86.17-2.05L86.17-2.05Q85.02-3.35 84.66-4.07L84.66-4.07 84.66-4.09 91.27-4.09Q92.48-2.9 94.26-2.08L94.26-2.08Q96.67-2.96 98.64-4.36L98.64-4.36Q99.21-4.85 99.21-4.87L99.21-4.87 99.21-4.89 84.6-4.89Q83.24-8.17 83.24-8.2ZM112.02-29.67L112.02-29.67 141.42-29.67 141.42-1.19Q141.42-1.14 141.46-1.14L141.46-1.14 142.73-1.14 142.73 4.24 135.34 4.24 135.34-24.27 117.28-24.27 117.28-12.35Q117.28-10.48 117.32-7.2L117.32-7.2Q117.32-1.21 115.79 1.02L115.79 1.02Q114.82 2.8 112.4 3.71L112.4 3.71Q110.63 4.24 109.27 4.24L109.27 4.24 109.27-1.19Q110.05-1.44 110.35-1.97L110.35-1.97Q110.56-2.31 110.73-2.96L110.73-2.96Q111.18-4.81 111.18-10.36L111.18-10.36 111.18-24.97Q111.18-26.45 111.2-29.65L111.2-29.65Q111.73-29.67 112.02-29.67ZM118.67-22.68L118.67-22.81 124.41-22.81Q124.41-18.83 126.23-14.4L126.23-14.4 126.25-14.4Q128.08-18.85 128.08-22.72L128.08-22.72 128.08-22.81 133.81-22.81Q133.81-17.11 131.4-11.41L131.4-11.41Q130.62-9.64 129.81-8.3L129.81-8.3Q130.24-7.64 131.65-6.23L131.65-6.23Q132.99-5 133.84-4.66L133.84-4.66Q134.15-4.53 134.15-4.51L134.15-4.51 134.15 0.89Q133.58 0.89 131.8 0.3L131.8 0.3Q130.57-0.21 129.22-1.06L129.22-1.06Q128.31-1.65 126.74-3.07L126.74-3.07 126.23-3.56Q124.56-1.93 123.63-1.31L123.63-1.31Q122.19-0.34 121.15 0.08L121.15 0.08Q119.99 0.66 118.33 0.89L118.33 0.89 118.33-4.51Q118.36-4.55 118.88-4.76L118.88-4.76 119.44-5.1Q120.07-5.48 121.09-6.48L121.09-6.48Q122.34-7.77 122.68-8.3L122.68-8.3Q121.45-10.36 120.47-12.96L120.47-12.96Q118.67-17.85 118.67-22.68L118.67-22.68ZM157.87-29.65L157.87-29.65 164.96-29.65Q165.16-29.48 165.41-28.72L165.41-28.72Q165.54-28.33 165.68-27.76L165.68-27.76 178.31-27.76 178.31-23.02 169.86-23.02 169.86-10.31Q169.86-10.27 169.81-10.27L169.81-10.27 163.42-10.27 163.42-23.02 160.98-23.02 160.98-10.31Q160.98-10.27 160.94-10.27L160.94-10.27 154.57-10.27 154.57-23.02 147.01-23.02 145.61-27.76 158.48-27.76 158.48-27.78Q158.21-28.86 157.87-29.65ZM148.07-21.71L148.07-21.71 153.66-21.71Q152.79-19.91 151.5-13.07L151.5-13.07Q151.33-11.99 151.22-11.22L151.22-11.22 145.61-11.22Q145.61-13.11 146.94-18.7L146.94-18.7Q147.3-20.08 147.68-21.05L147.68-21.05Q147.92-21.62 148.07-21.71ZM170.26-21.71L170.26-21.71 175.89-21.71Q176.7-20.52 177.78-15.12L177.78-15.12Q178.31-12.24 178.31-11.22L178.31-11.22 172.69-11.22Q172.69-11.86 171.7-16.73L171.7-16.73Q170.83-20.58 170.26-21.71ZM147.13-8.56L147.13-8.56 153.19-8.56 153.19-8.47Q153.19-5.38 152.26 1.21L152.26 1.21Q151.84 3.81 151.5 4.21L151.5 4.21 145.44 4.21Q146.01 2.58 146.77-3.85L146.77-3.85Q147.13-7.09 147.13-8.56ZM154.57 4.21L154.57-8.56 160.64-8.56 160.64 0.91 171.02 0.91 171.02 4.21 166.55 4.21Q162.3 4.21 157.34 4.24L157.34 4.24Q156.58 4.21 154.57 4.21L154.57 4.21ZM162.06-8.56L162.06-8.56 168.1-8.56Q168.14-8.53 168.14-8.51L168.14-8.51 168.14-8.45Q168.14-6.84 169.37-1.65L169.37-1.65Q169.58-0.87 169.81-0.28L169.81-0.28 163.74-0.28Q163.14-1.19 162.38-5.63L162.38-5.63Q162.06-7.69 162.06-8.56ZM170.45-8.53L170.49-8.56 176.53-8.56 176.53-8.53Q176.53-5.44 178.09 2.41L178.09 2.41Q178.37 3.54 178.56 4.21L178.56 4.21 172.48 4.21Q171.8 2.94 170.85-3.96L170.85-3.96Q170.45-7.33 170.45-8.53L170.45-8.53Z" transform="translate(-1.3600000143051147, 29.989999771118164)"></path></g> <!----> <!----> <!----> <!----> <!----> <!----> <!----></g></g> <g data-gra="path-slogan" fill-rule="" class="tp-slogan iconsvg-slogansvg" fill="#fbbc09" transform="translate(14.814170837402344,40.22999954223633)"><!----> <!----> <g transform="scale(1, 1)"><g transform="scale(1)"><path d="M7.17-6.09L7.17-6.09L6.09-6.09Q6-7.73 3.94-7.83L3.94-7.83Q2.02-7.78 2.02-6.33L2.02-6.33Q2.02-5.39 3.05-5.25L3.05-5.25L5.48-4.69Q7.41-4.22 7.41-2.34L7.41-2.34Q7.36 0.05 4.03 0.14L4.03 0.14Q2.20 0.14 1.45-0.61L1.45-0.61Q0.52-1.31 0.56-2.77L0.56-2.77L1.69-2.77Q1.73-0.80 4.03-0.75L4.03-0.75Q6.28-0.80 6.33-2.20L6.33-2.20Q6.52-3.38 4.45-3.75L4.45-3.75L2.67-4.13Q0.84-4.64 0.84-6.19L0.84-6.19Q0.98-8.72 3.84-8.81L3.84-8.81Q7.08-8.81 7.17-6.09ZM14.53-3.19L14.53-8.58L15.70-8.58L15.70-3.05Q15.56 0.05 12.19 0.14L12.19 0.14Q9.05 0.05 8.91-2.86L8.91-2.86L8.91-8.58L10.08-8.58L10.08-3.19Q10.13-0.84 12.23-0.80L12.23-0.80Q14.53-0.84 14.53-3.19L14.53-3.19ZM18.33-1.03L23.63-1.03L23.63 0L16.88 0L16.88-0.94L22.13-7.59L17.25-7.59L17.25-8.58L23.63-8.58L23.63-7.59L18.33-1.03ZM25.92-5.06L30.42-5.06L30.42-8.58L31.59-8.58L31.59 0L30.42 0L30.42-3.98L25.92-3.98L25.92 0L24.75 0L24.75-8.58L25.92-8.58L25.92-5.06ZM40.17-4.27L40.17-4.27Q39.98-7.64 37.17-7.83L37.17-7.83Q34.31-7.69 34.17-4.27L34.17-4.27Q34.31-0.94 37.17-0.80L37.17-0.80Q39.98-0.98 40.17-4.27ZM41.34-4.27L41.34-4.27Q41.06 0 37.17 0.14L37.17 0.14Q33.23 0 32.95-4.27L32.95-4.27Q33.19-8.72 37.17-8.81L37.17-8.81Q41.06-8.67 41.34-4.27ZM48.38-3.19L48.38-8.58L49.55-8.58L49.55-3.05Q49.41 0.05 46.03 0.14L46.03 0.14Q42.89 0.05 42.75-2.86L42.75-2.86L42.75-8.58L43.92-8.58L43.92-3.19Q43.97-0.84 46.08-0.80L46.08-0.80Q48.38-0.84 48.38-3.19L48.38-3.19ZM62.91-8.58L62.91 0L61.78 0L61.78-5.06Q61.78-5.77 61.78-7.22L61.78-7.22L59.34 0L58.17 0L55.78-7.22L55.73-7.22Q55.73-6.70 55.78-5.67L55.78-5.67Q55.78-5.16 55.78-5.06L55.78-5.06L55.78 0L54.61 0L54.61-8.58L56.30-8.58L58.78-1.31L61.22-8.58L62.91-8.58ZM70.27 0L69.42-2.48L65.95-2.48L65.06 0L63.89 0L67.13-8.58L68.44-8.58L71.53 0L70.27 0ZM67.69-7.31L66.33-3.52L69-3.52L67.73-7.31L67.69-7.31ZM73.97-8.58L78.28-1.64L78.28-8.58L79.41-8.58L79.41 0L78.09 0L73.73-6.94L73.69-6.94L73.69 0L72.56 0L72.56-8.58L73.97-8.58ZM86.72-3.89L82.50-3.89L82.50 0L81.33 0L81.33-8.58L87.28-8.58L87.28-7.59L82.50-7.59L82.50-4.92L86.72-4.92L86.72-3.89ZM89.77-1.03L94.92-1.03L94.92 0L88.59 0L88.59-8.58L94.83-8.58L94.83-7.59L89.77-7.59L89.77-4.92L94.45-4.92L94.45-3.89L89.77-3.89L89.77-1.03ZM97.83-8.58L102.14-1.64L102.14-8.58L103.27-8.58L103.27 0L101.95 0L97.59-6.94L97.55-6.94L97.55 0L96.42 0L96.42-8.58L97.83-8.58ZM111.47-3.61L108.84-3.61L108.84-4.59L112.59-4.59L112.59 0L111.84 0L111.56-1.08Q110.58 0.09 108.75 0.14L108.75 0.14Q107.02 0.14 106.08-0.75L106.08-0.75Q104.67-2.06 104.72-4.36L104.72-4.36Q105.05-8.63 108.80-8.81L108.80-8.81Q111.98-8.63 112.45-6L112.45-6L111.33-6Q110.86-7.78 108.75-7.83L108.75-7.83Q106.08-7.64 105.94-4.31L105.94-4.31Q105.94-0.75 108.80-0.75L108.80-0.75Q109.83-0.75 110.58-1.31L110.58-1.31Q111.52-2.06 111.47-3.61L111.47-3.61ZM117.70-8.58L118.88-8.58L118.88-1.03L123.23-1.03L123.23 0L117.70 0L117.70-8.58ZM131.16-4.27L131.16-4.27Q130.97-7.64 128.16-7.83L128.16-7.83Q125.30-7.69 125.16-4.27L125.16-4.27Q125.30-0.94 128.16-0.80L128.16-0.80Q130.97-0.98 131.16-4.27ZM132.33-4.27L132.33-4.27Q132.05 0 128.16 0.14L128.16 0.14Q124.22 0 123.94-4.27L123.94-4.27Q124.17-8.72 128.16-8.81L128.16-8.81Q132.05-8.67 132.33-4.27ZM134.34-8.58L136.78-1.27L139.27-8.58L140.58-8.58L137.44 0L136.17 0L133.03-8.58L134.34-8.58ZM142.97-1.03L148.13-1.03L148.13 0L141.80 0L141.80-8.58L148.03-8.58L148.03-7.59L142.97-7.59L142.97-4.92L147.66-4.92L147.66-3.89L142.97-3.89L142.97-1.03Z" transform="translate(-0.5602678571428572, 8.8125)"></path></g></g></g></g></g><defs v-gra="od"></defs></svg>